<?xml version="1.0" standalone="no"?>
<!DOCTYPE svg PUBLIC "-//W3C//DTD SVG 20010904//EN"
 "http://www.w3.org/TR/2001/REC-SVG-20010904/DTD/svg10.dtd">
<svg version="1.0" xmlns="http://www.w3.org/2000/svg"
 width="1024.000000pt" height="1024.000000pt" viewBox="0 0 1024.000000 1024.000000"
 preserveAspectRatio="xMidYMid meet">

<g transform="translate(0.000000,1024.000000) scale(0.100000,-0.100000)" stroke="none">
<path d="M0 5120 l0 -5120 5120 0 5120 0 0 5120 0 5120 -5120 0 -5120 0 0
-5120z m5325 3596 c72 -3 182 -12 245 -21 849 -119 1609 -503 2200 -1111 420
-433 729 -955 884 -1495 94 -327 129 -581 129 -944 1 -581 -114 -1083 -360
-1576 -178 -357 -417 -678 -726 -975 -554 -532 -1288 -879 -2097 -990 -156
-21 -621 -30 -787 -15 -270 24 -609 94 -868 179 -471 154 -882 384 -1265 705
-340 286 -653 682 -845 1069 -208 418 -320 804 -366 1262 -18 179 -7 654 20
823 28 185 85 424 137 583 124 374 242 600 523 1007 60 87 276 327 412 458
572 552 1314 912 2104 1021 124 17 392 32 480 27 28 -1 109 -5 180 -7z"/>
<path d="M4885 8393 c-133 -11 -250 -28 -400 -58 -441 -88 -903 -288 -1283
-555 -172 -121 -245 -180 -389 -316 -306 -288 -535 -595 -715 -956 -162 -326
-259 -639 -310 -1003 -17 -122 -17 -630 0 -750 79 -549 256 -1009 555 -1435
515 -736 1360 -1248 2287 -1385 276 -40 643 -45 910 -10 687 90 1295 354 1800
783 215 183 442 436 580 647 25 39 59 90 76 115 98 150 238 438 291 600 14 41
38 111 54 155 50 137 98 383 120 609 18 184 7 609 -20 764 -35 206 -60 304
-118 479 -173 521 -420 911 -842 1333 -562 561 -1303 907 -2096 980 -101 9
-404 11 -500 3z m995 -288 c51 -26 54 -104 7 -139 -28 -21 -35 -21 -725 -24
-383 -2 -717 0 -741 3 -87 13 -122 97 -60 149 l31 26 729 0 c633 0 734 -2 759
-15z m1080 -515 c35 -46 19 -110 -34 -132 -25 -11 -350 -13 -1776 -10 -960 1
-1767 2 -1793 2 -38 0 -53 5 -72 25 -34 33 -34 87 0 121 l24 24 1816 -2 1816
-3 19 -25z m395 -462 c41 -22 71 -56 90 -100 13 -33 15 -251 15 -1996 0 -1453
-3 -1968 -12 -1993 -18 -55 -45 -86 -96 -111 l-47 -23 -2190 0 -2190 0 -45 27
c-28 16 -55 43 -70 70 l-25 43 -3 1940 c-2 1067 0 1963 3 1992 11 92 70 153
158 164 29 3 1026 6 2217 5 1994 -1 2167 -2 2195 -18z m480 -519 c19 -19 20
-35 23 -552 2 -292 0 -552 -3 -576 -12 -84 -88 -119 -140 -66 l-25 24 0 581 0
580 33 21 c38 23 81 19 112 -12z m-5309 0 c18 -20 19 -47 22 -582 2 -389 -1
-570 -8 -588 -21 -51 -83 -63 -127 -25 l-28 24 -3 569 c-2 565 -2 570 18 596
28 35 97 38 126 6z m-325 -597 c19 -25 20 -38 17 -259 -3 -225 -4 -233 -25
-255 -28 -28 -84 -29 -113 -3 -19 17 -20 29 -20 260 0 262 1 269 55 284 40 10
61 4 86 -27z m5956 6 c23 -21 23 -24 23 -260 l0 -239 -25 -24 c-31 -32 -66
-32 -102 -1 l-28 24 -3 234 c-3 226 -2 235 18 261 28 35 83 37 117 5z m-5869
-687 c114 -59 163 -190 111 -298 -63 -131 -247 -165 -352 -65 -113 107 -82
303 58 368 45 20 139 18 183 -5z m5880 -17 c141 -100 118 -322 -40 -388 -46
-20 -128 -21 -171 -3 -87 37 -137 112 -137 206 0 73 12 106 53 150 52 54 100
72 183 68 59 -3 78 -9 112 -33z m-5663 -478 c29 -12 34 -20 40 -58 3 -24 5
-284 3 -579 -3 -512 -4 -538 -22 -558 -25 -27 -85 -28 -117 -2 l-24 19 -3 567
-2 566 29 30 c33 33 47 35 96 15z m5327 -16 c9 -12 20 -40 23 -63 3 -23 5
-279 3 -569 l-3 -527 -22 -23 c-31 -30 -84 -30 -118 2 l-25 23 0 566 c1 429 4
570 13 582 33 43 97 47 129 9z m-5637 -61 c19 -18 20 -35 23 -242 2 -122 0
-237 -3 -255 -13 -68 -84 -94 -130 -47 -25 24 -25 26 -27 227 -3 256 -1 297
14 315 30 37 87 38 123 2z m5960 6 l25 -24 0 -255 0 -255 -26 -20 c-36 -29
-79 -27 -110 4 l-25 25 3 251 3 251 28 24 c36 31 71 31 102 -1z m-2942 -2071
c136 -46 215 -203 173 -345 -23 -82 -64 -131 -137 -168 -149 -74 -326 -15
-388 130 -30 68 -30 169 -1 237 56 131 211 195 353 146z m-1045 -94 c30 -28
38 -68 21 -99 -27 -47 -47 -51 -306 -51 -240 0 -242 0 -269 24 -39 33 -39 89
0 122 27 24 28 24 280 24 240 0 253 -1 274 -20z m2477 -5 c14 -13 25 -36 25
-51 0 -35 -28 -81 -54 -88 -12 -3 -130 -6 -263 -6 -240 0 -242 0 -269 24 -38
32 -38 90 1 123 26 23 30 23 281 23 l255 0 24 -25z"/>
<path d="M3207 6856 c-61 -17 -116 -61 -144 -116 l-23 -44 0 -1678 c0 -1399 2
-1684 14 -1711 21 -50 90 -104 150 -117 36 -8 597 -10 1946 -8 l1895 3 40 22
c48 26 90 68 104 106 8 20 11 544 11 1703 0 1382 -2 1680 -13 1707 -21 50 -62
93 -114 118 l-48 24 -1885 2 c-1515 1 -1894 -1 -1933 -11z m1373 -661 l0 -275
-107 1 c-122 0 -155 9 -218 59 -145 114 -138 335 15 436 63 42 108 53 213 54
l97 0 0 -275z m1336 260 c61 -18 125 -71 162 -133 24 -41 27 -57 27 -132 0
-101 -19 -146 -89 -207 -59 -52 -100 -63 -240 -63 l-116 0 0 275 0 275 103 0
c62 0 123 -6 153 -15z m-2191 -29 c19 -8 57 -36 85 -62 88 -82 103 -201 39
-312 -51 -89 -169 -139 -269 -113 -101 27 -190 139 -190 240 0 102 77 222 160
248 51 16 135 15 175 -1z m2934 -22 c20 -25 21 -40 21 -220 0 -189 -1 -194
-24 -220 -30 -35 -87 -37 -120 -5 -20 21 -21 31 -21 219 0 173 2 201 18 225
15 23 25 27 62 27 35 0 47 -5 64 -26z m-1319 -154 c10 -5 24 -25 30 -44 17
-51 -7 -92 -62 -106 -62 -17 -366 -9 -395 10 -48 32 -53 97 -9 132 18 15 47
18 219 18 113 0 206 -4 217 -10z m-1566 -774 c73 -36 134 -95 166 -161 19 -41
24 -66 24 -135 1 -75 -3 -91 -28 -137 -27 -50 -75 -92 -144 -127 l-33 -17 27
-37 c15 -20 69 -89 119 -152 98 -122 121 -158 110 -168 -4 -4 -52 -6 -108 -5
l-102 3 -44 47 c-25 27 -87 101 -138 166 -52 65 -98 115 -103 112 -6 -4 -10
-66 -10 -141 0 -75 -4 -144 -10 -154 -24 -44 -139 -49 -177 -8 -17 19 -18 50
-21 485 l-3 465 208 -4 c206 -3 208 -3 267 -32z m2038 2 c237 -111 265 -421
50 -545 -26 -15 -49 -28 -51 -29 -6 -5 26 -50 136 -187 58 -72 112 -141 120
-154 l15 -23 -118 0 -119 1 -110 137 c-60 75 -123 150 -140 167 l-30 30 -5
-146 c-6 -166 -12 -182 -78 -193 -47 -7 -109 9 -121 32 -10 20 -23 927 -13
937 4 4 97 5 207 3 192 -3 202 -4 257 -30z m903 -6 c168 -79 268 -280 236
-475 -39 -236 -213 -381 -438 -364 -91 7 -157 37 -231 104 -107 98 -149 211
-140 375 4 79 10 103 37 156 56 111 155 198 258 228 80 23 200 12 278 -24z
m-2306 -69 c23 -31 41 -61 41 -66 0 -5 -14 -27 -31 -49 -47 -59 -78 -143 -79
-210 0 -74 22 -139 72 -210 37 -52 40 -60 29 -85 -6 -16 -26 -46 -45 -67 l-33
-40 -49 46 c-59 55 -118 151 -140 228 -12 40 -15 82 -12 155 4 91 7 106 41
172 36 71 130 183 154 183 7 0 30 -25 52 -57z m666 5 c25 -29 62 -86 83 -127
32 -66 37 -83 40 -169 5 -110 -8 -183 -48 -262 -31 -62 -114 -160 -136 -160
-16 0 -84 98 -84 122 0 9 11 29 24 45 105 126 106 289 1 434 -34 48 -35 49
-17 77 29 48 66 91 79 91 6 1 32 -23 58 -51z m-1240 -1189 c53 -14 136 -99
153 -155 29 -99 5 -183 -71 -250 -96 -85 -217 -85 -313 -1 -25 22 -54 57 -64
78 -24 46 -27 141 -5 192 47 114 173 171 300 136z m3131 -102 c31 -36 31 -78
0 -114 l-24 -28 -1229 -3 c-878 -2 -1239 0 -1266 8 -29 9 -42 19 -53 45 -17
41 -4 86 29 104 31 15 90 16 1375 16 l1144 0 24 -28z m-15 -486 c45 -45 37
-100 -18 -129 -16 -9 -334 -12 -1246 -12 l-1224 0 -27 25 c-40 37 -30 110 18
133 14 7 424 11 1244 11 l1224 1 29 -29z"/>
<path d="M3512 5198 l3 -103 87 0 c81 0 90 2 113 26 35 35 41 85 15 127 -26
42 -54 52 -146 52 l-75 0 3 -102z"/>
<path d="M5560 5195 l0 -105 65 0 c87 0 132 19 151 65 12 30 13 43 3 72 -17
52 -59 73 -146 73 l-73 0 0 -105z"/>
<path d="M6475 5284 c-49 -25 -74 -54 -95 -111 -22 -60 -26 -128 -9 -188 15
-55 92 -130 141 -139 113 -21 213 70 225 203 13 141 -71 251 -191 251 -22 0
-54 -7 -71 -16z"/>
</g>
</svg>
